<?xml version="1.0" encoding="UTF-8"?>
<svg width="30px" height="30px" viewBox="0 0 30 30" version="1.1" xmlns="http://www.w3.org/2000/svg" xmlns:xlink="http://www.w3.org/1999/xlink">
    <!-- Generator: Sketch 52.6 (67491) - http://www.bohemiancoding.com/sketch -->
    <title>Info</title>
    <desc>Created with Sketch.</desc>
    <g id="Icons" stroke="none" stroke-width="1" fill="none" fill-rule="evenodd">
        <g id="Info" fill="#DF1D00">
            <path d="M13.2876712,9.78082192 C13.3424658,9.89041096 13.3972603,10 13.4520548,10.0821918 C13.5068493,10.1643836 13.5890411,10.2465753 13.6438356,10.3287671 C13.7260274,10.4109589 13.8082192,10.4931507 13.9178082,10.5753425 C14,10.630137 14.109589,10.7123288 14.2465753,10.739726 C14.3561644,10.7945205 14.4657534,10.8219178 14.6027397,10.8493151 C14.739726,10.8767123 14.8493151,10.8767123 14.9589041,10.8767123 C15.0684932,10.8767123 15.2054795,10.8767123 15.3150685,10.8493151 C15.4246575,10.8219178 15.5342466,10.7945205 15.6164384,10.739726 L15.6438356,10.739726 C15.7534247,10.6849315 15.8630137,10.630137 15.9726027,10.5479452 C16.0547945,10.4931507 16.1369863,10.4109589 16.2191781,10.3287671 L16.2465753,10.3013699 C16.3287671,10.2191781 16.3835616,10.1369863 16.4383562,10.0547945 C16.4931507,9.97260274 16.5479452,9.89041096 16.5753425,9.78082192 C16.5753425,9.75342466 16.5753425,9.75342466 16.6027397,9.7260274 C16.6575342,9.61643836 16.6849315,9.47945205 16.7123288,9.36986301 C16.739726,9.26027397 16.739726,9.12328767 16.739726,9.01369863 C16.739726,8.90410959 16.739726,8.76712329 16.7123288,8.65753425 C16.6849315,8.54794521 16.6575342,8.43835616 16.6027397,8.30136986 C16.5205479,8.10958904 16.4109589,7.94520548 16.2739726,7.80821918 C16.2465753,7.78082192 16.2465753,7.78082192 16.2191781,7.75342466 C16.1369863,7.67123288 16.0547945,7.61643836 15.9452055,7.53424658 C15.8356164,7.47945205 15.7534247,7.42465753 15.6438356,7.36986301 C15.5342466,7.31506849 15.4246575,7.28767123 15.3150685,7.26027397 C15.1780822,7.23287671 15.0684932,7.23287671 14.9589041,7.23287671 C14.8493151,7.23287671 14.7123288,7.23287671 14.6027397,7.26027397 C14.4931507,7.28767123 14.3835616,7.31506849 14.2739726,7.36986301 L14.2465753,7.36986301 C14.1369863,7.42465753 14.0273973,7.47945205 13.9452055,7.53424658 C13.8356164,7.61643836 13.7534247,7.67123288 13.6712329,7.75342466 C13.5890411,7.83561644 13.5068493,7.91780822 13.4520548,8 C13.3972603,8.08219178 13.3424658,8.19178082 13.2876712,8.30136986 C13.2328767,8.4109589 13.2054795,8.52054795 13.1780822,8.63013699 C13.1506849,8.76712329 13.1506849,8.87671233 13.1506849,8.98630137 C13.1506849,9.09589041 13.1506849,9.23287671 13.1780822,9.34246575 C13.2054795,9.56164384 13.260274,9.67123288 13.2876712,9.78082192 Z" id="Path"></path>
            <path d="M17.0958904,19.8082192 L16.4657534,19.8082192 L16.4657534,13.0958904 C16.4657534,12.7123288 16.1643836,12.3835616 15.7534247,12.3835616 L12.8767123,12.3835616 C12.4931507,12.3835616 12.1643836,12.6849315 12.1643836,13.0958904 L12.1643836,14.5753425 C12.1643836,14.9589041 12.4657534,15.2876712 12.8767123,15.2876712 L13.4520548,15.2876712 L13.4520548,19.8356164 L12.8767123,19.8356164 C12.4931507,19.8356164 12.1643836,20.1369863 12.1643836,20.5479452 L12.1643836,22.0273973 C12.1643836,22.4109589 12.4657534,22.739726 12.8767123,22.739726 L17.0958904,22.739726 C17.4794521,22.739726 17.8082192,22.4383562 17.8082192,22.0273973 L17.8082192,20.5479452 C17.8082192,20.1369863 17.4794521,19.8082192 17.0958904,19.8082192 Z" id="Path"></path>
            <path d="M14.9863014,0 C6.71232877,0 0,6.71232877 0,14.9863014 C0,23.260274 6.71232877,29.9726027 14.9863014,29.9726027 C23.260274,29.9726027 29.9726027,23.260274 29.9726027,14.9863014 C29.9726027,6.71232877 23.260274,0 14.9863014,0 Z M14.9863014,28 C7.80821918,28 1.97260274,22.1643836 1.97260274,14.9863014 C1.97260274,7.80821918 7.80821918,1.97260274 14.9863014,1.97260274 C22.1643836,1.97260274 28,7.80821918 28,14.9863014 C28,22.1643836 22.1643836,28 14.9863014,28 Z" id="Shape" fill-rule="nonzero"></path>
        </g>
    </g>
</svg>